HIERARCHY
ROOT hip
{
	OFFSET 0.000000 0.000000 0.000000 
	CHANNELS 6 Xposition Yposition Zposition Xrotation Zrotation Yrotation
	JOINT abdomen
	{
		OFFSET 0.000000 3.402643 0.000000 
		CHANNELS 3 Xrotation Zrotation Yrotation
		JOINT chest
		{
			OFFSET 0.000000 8.438565 -0.680529 
			CHANNELS 3 Xrotation Zrotation Yrotation
			JOINT neck
			{
				OFFSET 0.000000 10.207942 -0.272212 
				CHANNELS 3 Xrotation Zrotation Yrotation
				JOINT head
				{
					OFFSET 0.000000 3.130431 0.000000 
					CHANNELS 3 Xrotation Zrotation Yrotation
					End Site
					{
						OFFSET 0.000000 3.130435 0.000000 
					}
				}
			}
			JOINT lCollar
			{
				OFFSET 3.470700 6.669187 -0.816635 
				CHANNELS 3 Yrotation Zrotation Xrotation
				JOINT lShldr
				{
					OFFSET 3.198488 0.000000 0.000000 
					CHANNELS 3 Zrotation Yrotation Xrotation
					JOINT lForeArm
					{
						OFFSET 10.139888 0.000000 0.000000 
						CHANNELS 3 Yrotation Zrotation Xrotation
						JOINT lHand
						{
							OFFSET 8.370511 0.000000 0.000000 
							CHANNELS 3 Zrotation Yrotation Xrotation
							End Site
							{
								OFFSET 4.083176 0.000000 0.000000 
							}
						}
					}
				}
			}
			JOINT rCollar
			{
				OFFSET -3.470700 6.669187 -0.816635 
				CHANNELS 3 Yrotation Zrotation Xrotation
				JOINT rShldr
				{
					OFFSET -3.198488 0.000000 0.000000 
					CHANNELS 3 Zrotation Yrotation Xrotation
					JOINT rForeArm
					{
						OFFSET -10.139888 0.000000 0.000000 
						CHANNELS 3 Yrotation Zrotation Xrotation
						JOINT rHand
						{
							OFFSET -8.370511 0.000000 0.000000 
							CHANNELS 3 Zrotation Yrotation Xrotation
							End Site
							{
								OFFSET -4.083176 0.000000 0.000000 
							}
						}
					}
				}
			}
		}
	}
	JOINT lThigh
	{
		OFFSET 5.308129 -1.633274 1.361059 
		CHANNELS 3 Xrotation Zrotation Yrotation
		JOINT lShin
		{
			OFFSET -2.041588 -20.007561 0.000000 
			CHANNELS 3 Xrotation Zrotation Yrotation
			JOINT lFoot
			{
				OFFSET 0.000000 -19.190928 -1.224953 
				CHANNELS 3 Xrotation Yrotation Zrotation
				End Site
				{
					OFFSET 0.000000 -2.449906 4.627600 
				}
			}
		}
	}
	JOINT rThigh
	{
		OFFSET -5.308129 -1.633274 1.361059 
		CHANNELS 3 Xrotation Zrotation Yrotation
		JOINT rShin
		{
			OFFSET 2.041588 -20.007561 0.000000 
			CHANNELS 3 Xrotation Zrotation Yrotation
			JOINT rFoot
			{
				OFFSET 0.000000 -19.190928 -1.224953 
				CHANNELS 3 Xrotation Yrotation Zrotation
				End Site
				{
					OFFSET 0.000000 -2.449906 4.627600 
				}
			}
		}
	}
}
MOTION
Frames: 11
Frame Time: 0.016667
-3.538046 51.599144 -0.206550 -9.337255 -18.556946 -54.334618 33.464161 10.423333 5.633207 2.417079 2.753868 -0.380979 7.627055 -0.161796 -0.024932 19.835421 -14.938800 35.262161 -14.795286 -6.848826 -0.353170 -28.326542 3.007843 -6.292083 -86.043243 5.000000 -2.013876 -20.661333 -16.947069 17.326155 7.186166 0.324370 -0.014432 70.245407 43.964695 43.291000 114.743095 -5.000000 5.032972 25.155170 -15.885808 13.234542 4.140645 24.734201 0.203577 15.677588 -5.809043 -1.903874 4.402061 4.363254 -13.590451 27.639229 -7.489280 -6.735688 19.292507 2.498071 0.932004 -20.797600 -21.856255 9.784845 
-3.529251 51.600407 -0.204037 -9.380506 -18.574028 -54.343945 33.428391 10.409792 5.592839 2.404495 2.753851 -0.449271 7.705269 -0.212997 -0.036947 19.868099 -14.968940 35.278996 -14.805480 -6.917093 -0.356696 -28.302290 3.072363 -6.279780 -85.970802 5.000000 -2.057131 -20.776981 -17.162994 17.306135 7.332657 0.343875 -0.015440 70.166298 43.854748 43.169857 114.732574 -5.000000 5.027088 25.237289 -15.830363 13.282509 4.169256 24.700401 0.190559 15.681350 -5.799424 -1.892965 4.406992 4.334297 -13.590024 27.669559 -7.557718 -6.707326 19.306370 2.547359 0.930387 -20.782200 -21.796267 9.765992 
-3.521963 51.602417 -0.203789 -9.395628 -18.604208 -54.367970 33.425312 10.418582 5.574814 2.423683 2.734318 -0.468793 7.724818 -0.241964 -0.032569 19.854404 -14.960969 35.276474 -14.787285 -6.943859 -0.367580 -28.302200 3.063088 -6.296968 -86.015373 5.000000 -2.037201 -20.481153 -16.963968 17.255472 7.322963 0.371888 -0.026638 70.124596 43.834042 43.119129 114.719421 -5.000000 5.005078 25.288069 -15.787011 13.232193 4.227454 24.689039 0.238232 15.648247 -5.807844 -1.852451 4.403370 4.320142 -13.553088 27.685272 -7.568312 -6.669975 19.299168 2.523602 0.936410 -20.806541 -21.836180 9.761760 
-3.515682 51.604931 -0.205050 -9.392338 -18.647432 -54.412949 33.437485 10.432350 5.594876 2.453631 2.705024 -0.459043 7.705328 -0.243425 -0.042225 19.815233 -14.921104 35.268925 -14.758050 -6.953616 -0.368085 -28.316658 2.994994 -6.317351 -86.119553 5.000000 -1.976708 -19.922230 -16.499413 17.183105 7.196036 0.420673 -0.029162 70.110672 43.885635 43.131287 114.715462 -5.000000 4.979331 25.309019 -15.743077 13.098619 4.287537 24.724871 0.334412 15.651988 -5.797468 -1.851183 4.405757 4.278472 -13.546721 27.691515 -7.538476 -6.620655 19.302168 2.507887 0.904878 -20.831280 -21.841745 9.775277 
-3.510155 51.607449 -0.206811 -9.370823 -18.696251 -54.457981 33.429932 10.447158 5.614965 2.493733 2.685499 -0.439535 7.685804 -0.253080 -0.040766 19.789745 -14.889212 35.263908 -14.709287 -6.963376 -0.368591 -28.331049 2.926893 -6.338206 -86.176834 5.000000 -1.944560 -19.572628 -16.262117 17.166143 7.088555 0.451154 -0.020985 70.103050 43.927814 43.134422 114.701248 -5.000000 4.944679 25.307602 -15.717817 13.012833 4.335662 24.754145 0.390962 15.679280 -5.808504 -1.855143 4.384186 4.220271 -13.534643 27.709249 -7.538303 -6.560599 19.291153 2.517300 0.905680 -20.820522 -21.830509 9.817347 
-3.507645 51.609959 -0.210583 -9.344241 -18.779707 -54.487202 33.441395 10.500422 5.618623 2.533197 2.695267 -0.439545 7.627223 -0.272392 -0.037847 19.773613 -14.919354 35.280724 -14.651011 -7.012148 -0.371110 -28.324984 2.852398 -6.352923 -86.035919 5.000000 -2.025016 -20.067726 -16.929762 17.308447 7.029957 0.441401 -0.020481 70.117989 43.944489 43.139854 114.665215 -5.000000 4.897425 25.211481 -15.758756 13.028435 4.394745 24.821676 0.451017 15.661791 -5.797517 -1.871525 4.377539 4.237063 -13.539962 27.740993 -7.480252 -6.451405 19.270414 2.517371 0.933678 -20.777008 -21.945238 9.858437 
-3.505130 51.612473 -0.214355 -9.316211 -18.857458 -54.513439 33.455345 10.545518 5.639788 2.572664 2.705036 -0.449321 7.568691 -0.293164 -0.044585 19.765862 -14.943269 35.283241 -14.582911 -7.051169 -0.373127 -28.318937 2.782549 -6.359068 -85.883690 5.000000 -2.115516 -20.570505 -17.584763 17.464878 6.961590 0.421896 -0.019473 70.146530 43.945309 43.154110 114.628632 -5.000000 4.846256 25.125193 -15.801885 13.041527 4.462885 24.907936 0.496680 15.654119 -5.816311 -1.902033 4.293025 4.215158 -13.537321 27.790894 -7.431480 -6.355260 19.256971 2.537707 0.964855 -20.724213 -21.996794 9.902864 
-3.500608 51.613972 -0.218122 -9.315578 -18.872059 -54.542904 33.403519 10.532387 5.621452 2.562899 2.705036 -0.459086 7.637065 -0.312476 -0.041666 19.793085 -14.948526 35.255398 -14.630695 -7.073133 -0.364755 -28.338522 2.885505 -6.371914 -85.849915 5.000000 -2.130996 -20.457142 -17.648008 17.474773 7.020195 0.451154 -0.020985 70.018158 43.844551 42.978718 114.610779 -5.000000 4.787611 25.152447 -15.787385 13.099256 4.471755 24.916353 0.499335 15.671123 -5.828619 -1.885829 4.358105 4.294926 -13.500264 27.793392 -7.440017 -6.238453 19.202522 2.575919 0.977234 -20.678816 -22.057245 9.874127 
-3.495584 51.615238 -0.221890 -9.318945 -18.871265 -54.574463 33.330982 10.511708 5.597296 2.523836 2.705036 -0.468852 7.734792 -0.333248 -0.048403 19.844303 -14.939573 35.210712 -14.718711 -7.092638 -0.365762 -28.372675 3.039394 -6.391804 -85.851135 5.000000 -2.129159 -20.183731 -17.564104 17.451803 7.098332 0.480412 -0.022498 69.851646 43.713154 42.769131 114.601639 -5.000000 4.721227 25.212994 -15.758689 13.171478 4.502006 24.909754 0.536893 15.650697 -5.829081 -1.864675 4.415620 4.283975 -13.503643 27.801661 -7.461495 -6.104153 19.149117 2.605311 0.987831 -20.621700 -22.104788 9.810207 
-3.493073 51.616489 -0.223142 -9.320983 -18.897118 -54.610241 33.312057 10.511080 5.596029 2.523836 2.705036 -0.468852 7.773854 -0.333248 -0.048403 19.860569 -14.949300 35.203945 -14.738309 -7.102390 -0.366266 -28.399878 3.114868 -6.413250 -85.796082 5.000000 -2.157946 -20.131638 -17.759996 17.511839 7.108191 0.498709 -0.033196 69.764793 43.644341 42.652393 114.566162 -5.000000 4.669781 25.261784 -15.717394 13.207772 4.560401 24.918114 0.572664 15.634763 -5.816298 -1.851624 4.464759 4.225241 -13.532998 27.845610 -7.440205 -6.047517 19.071552 2.593057 0.990895 -20.617384 -22.138525 9.765615 
-3.494330 51.617752 -0.220630 -9.322020 -18.974680 -54.636711 33.334400 10.527895 5.597183 2.572203 2.705033 -0.478607 7.734774 -0.313937 -0.051322 19.826979 -14.974206 35.248631 -14.650417 -7.102390 -0.366265 -28.405622 3.065649 -6.420477 -85.661476 5.000000 -2.228848 -20.384575 -18.375946 17.657469 7.000776 0.508479 -0.033702 69.795609 43.680950 42.682796 114.491432 -5.000000 4.629348 25.289289 -15.665316 13.197602 4.658211 24.939306 0.623942 15.602201 -5.790165 -1.855682 4.415375 4.225807 -13.553822 27.943695 -7.411036 -6.017649 18.987822 2.563086 0.952302 -20.570011 -22.135494 9.788797 
